<svg id="Ebene_1" data-name="Ebene 1" xmlns="http://www.w3.org/2000/svg" viewBox="0 0 814.37 868.76"><defs><style>.cls-1{fill:#a67c52;}.cls-1,.cls-3{opacity:0.7;}.cls-2,.cls-5{fill:#4d4d4d;}.cls-2{opacity:0.4;}.cls-4{fill:#333;}.cls-6{fill:#c69c6d;}</style></defs><title>titelseite</title><path class="cls-1" d="M710.8,106.35H1168v13.88q-25.3,0-40.41,4.08t-24.09,13.47q-9,9.41-14.69,24.9a375.94,375.94,0,0,0-11.43,38.38l-13.07,49,74.3,263.72q5.7-16.33,13.47-39.19t13.47-40q8.16-24.49,18-54.3t20-60q10.2-30.19,19.19-59.19T1239.06,208q7.35-24.08,11.43-40.83t4.08-22.45q0-9.79-6.12-15.1a34.1,34.1,0,0,0-14.7-7.35,74.35,74.35,0,0,0-17.15-2h-15.1V106.35h145.33v13.88q-24.49,0-37.56,1.22t-20.82,7.35q-7.77,6.12-13.06,19.6t-13.47,37.15l-4.08,12.24L1106,669.71h-13.06l-76.75-267.8-75.93,267.8c-3.27,0-6.67.13-10.21.41s-6.67.41-9.39.41l-169-550.3H710.8Zm295.56,273.51-80-259.63H843.07L963.91,522.75ZM1057,229.64c.54-1.09,2-6,4.49-14.7s5.17-18.23,8.17-28.58,5.71-20.13,8.16-29.39,3.68-15,3.68-17.15q0-7.35-3.68-11a25.52,25.52,0,0,0-9-5.72,38.53,38.53,0,0,0-10.61-2.45c-3.55-.26-6.41-.4-8.57-.4H1026Z" transform="translate(-552.81 -105.62)"/><path class="cls-2" d="M627.86,105.62h170q31.27,0,68.51,2.54a222.55,222.55,0,0,1,69.36,15.65,129.36,129.36,0,0,1,53.71,40.6Q1011,191.91,1011,241.8t-25.8,82.47q-25.8,32.58-66.4,43.57v8.45A224.16,224.16,0,0,1,962,394.06,132,132,0,0,1,997.5,422a121.46,121.46,0,0,1,23.68,40.18q8.45,23.28,8.46,54.56,0,50.74-17.76,81.2T966.2,644.43q-27.91,16.08-62.59,20.72a507.56,507.56,0,0,1-67.67,4.66H627.86V655.43h45.68V120H627.86ZM767.43,362.76h11.84A314,314,0,0,0,827.48,359a117.53,117.53,0,0,0,44.83-16.49q20.31-12.69,33-35.53T918,246q0-29.59-10.58-53.71a132.59,132.59,0,0,0-27.49-41,117,117,0,0,0-38.48-25.8A115.61,115.61,0,0,0,797,116.62a79.8,79.8,0,0,0-14,1.27q-7.19,1.26-15.64,3Zm0,292.67H814q51.59,0,83.74-35.11t32.14-97.69q0-46.51-11.84-75.28t-33.41-44.41Q863,387.29,833.4,381.79t-66-5.5Z" transform="translate(-552.81 -105.62)"/><g class="cls-3"><path class="cls-4" d="M552.81,812.78v-1.84q14.1,0,14.65-11.22V702.43q0-12.88-14.65-12.88v-1.84h47.61q54.92,0,54.92,25.39,0,22.24-34.78,26.85,21.6,2.2,35.52,11.58T670,776q0,17.85-14.92,27.31t-40,9.48Zm44-123.23v49.66h3.66q13.55,0,20.14-5.7,5.49-4.78,5.49-20,0-12.69-4.76-18-4.95-5.88-20.87-5.89Zm0,121.39h18.3q13.55,0,20.14-7,5.5-5.7,5.5-28-.37-16.18-7.69-25.56t-25.27-9.38h-11Z" transform="translate(-552.81 -105.62)"/><path class="cls-4" d="M794.49,812.78H757.87q-1.83,0-4-2.94c-1.46-2-2.32-3-2.56-3q-9.33,6.81-22.7,6.81-23.26,0-37.26-10.49t-14-23.54q0-13,13.92-23.08t37.35-10a54.7,54.7,0,0,1,22,4.6v-4.6q0-28.5-23.8-28.51A58,58,0,0,0,697.64,726l-1.1-1.66a61.73,61.73,0,0,1,30.21-8.09q53.09,0,53.09,48.74v33.1q0,12.88,14.65,12.88Zm-43.94-59.59a52.11,52.11,0,0,0-22-4.78q-13.56,0-19,10.3-2.94,5-2.93,21,0,19.5,4.76,25.38,5.67,6.81,17.21,6.81,13.9,0,22.33-7-.36-11.4-.36-21.89Z" transform="translate(-552.81 -105.62)"/><path class="cls-4" d="M904.16,734.61a14.48,14.48,0,0,1-4.21,10.3,13.83,13.83,0,0,1-10.44,4.42,14.35,14.35,0,0,1-10.25-4.23,14,14,0,0,1-4.4-10.49l.74-7.35q0-7.37-7-7.36-12.45,0-23.07,12.14v66q0,12.88,14.65,12.88v1.84H801.63v-1.84q14.64,0,14.65-12.88V731.85q0-12.87-14.65-12.87v-1.84h36.62c1.1,0,2.19,1,3.29,2.94a26.6,26.6,0,0,1,2.93,5.89l1.1,3.13a55.35,55.35,0,0,1,12.82-9.38q7.32-3.51,20.5-3.5A32.68,32.68,0,0,1,896.47,721,15.15,15.15,0,0,1,904.16,734.61Z" transform="translate(-552.81 -105.62)"/><path class="cls-4" d="M953.59,731.85v66.21q0,12.88,14.65,12.88v1.84H909.65v-1.84q14.64,0,14.65-12.88V731.85q0-12.87-14.65-12.87v-1.84h36.62q1.65,0,3.93,2.86c1.53,1.89,2.41,2.84,2.66,2.84q9.89-6.62,19-6.62,47.6,0,47.6,34v47.81q0,12.88,14.65,12.88v1.84H975.56v-1.84q14.64,0,14.65-12.88v-46q0-34-18.31-34-9.52,0-18.67,6.81A64.61,64.61,0,0,1,953.59,731.85Z" transform="translate(-552.81 -105.62)"/><path class="cls-4" d="M1153.16,812.78h-36.62q-1.83,0-4-2.94c-1.46-2-2.32-3-2.56-3q-9.35,6.81-22.7,6.81-23.26,0-37.26-10.49t-14-23.54q0-13,13.92-23.08t37.35-10a54.74,54.74,0,0,1,22,4.6v-4.6q0-28.5-23.81-28.51A58,58,0,0,0,1056.3,726l-1.09-1.66a61.72,61.72,0,0,1,30.2-8.09q53.1,0,53.1,48.74v33.1q0,12.88,14.65,12.88Zm-43.94-59.59a52.11,52.11,0,0,0-22-4.78q-13.56,0-19,10.3-2.92,5-2.92,21,0,19.5,4.76,25.38,5.67,6.81,17.21,6.81,13.9,0,22.33-7-.36-11.4-.36-21.89Z" transform="translate(-552.81 -105.62)"/><path class="cls-4" d="M1191.42,722.29q9.15-6.07,18.31-6.07,21.6,0,34.6,13.06,13,12.88,13,35.68t-12.81,35.68q-13,12.87-34.79,12.87a29.61,29.61,0,0,1-18.31-6.07q-6-4.77-11.35-4.78-3.12,0-8,5.06t-5.4,5.06h-4.58V687.71q0-12.87-14.65-12.87V673h36.62q7.32,0,7.32,14.71Zm0,82.76q9,6.63,18.31,6.62,11.89,0,16.11-10.48,2.21-5.88,2.2-36.23,0-31.26-2.2-36.42-4.39-10.47-16.11-10.48-9.33,0-18.31,6.62v80.37Z" transform="translate(-552.81 -105.62)"/><path class="cls-4" d="M1315.92,813.7q-24.72,0-38.08-12.69-13.18-12.69-13.18-36,0-23.18,13.36-36.05,13.37-12.69,37.9-12.69t37.9,12.69q13.37,12.89,13.37,36.05H1294q0,32.55,3.66,37.7a21.58,21.58,0,0,0,18.31,9.2,51.77,51.77,0,0,0,25.82-6.81A54,54,0,0,0,1361,787.21l1.47.92a54.54,54.54,0,0,1-19.78,18.58A53.73,53.73,0,0,1,1315.92,813.7Zm-22-50.58h43.94q0-27.95-2.74-33.84-5.13-11.22-19.23-11.22-13.92,0-17.94,9.38Q1293.95,737.19,1294,763.12Zm12.82-60.69,1.83-5.52q6.76-19.68,9-22.44,1.1-1.47,2-1.47h23.8v1.84a11.7,11.7,0,0,0-3.75,1.38,18.4,18.4,0,0,0-5.49,3.95l-21.88,22.26Z" transform="translate(-552.81 -105.62)"/><path class="cls-5" d="M757.57,831.58h22a2.78,2.78,0,0,1,2.49,1.26q.93,1.26,2.59,6.5L801.3,891l10.05-31-6.62-20.28c-1.46-4.73-4.68-7.11-9.68-7.11v-1h33.23v1c-4.55,0-6.82,1.18-6.82,3.52a11.29,11.29,0,0,0,.67,3.2l16.68,51.73,16.78-51.6a19.22,19.22,0,0,0,.34-3.1q0-3.75-7.32-3.75v-1h17.23v1c-4.93,0-8.15,2.38-9.68,7.11L839.6,892l-3.38,10.71h-6.51c-2.94,0-5.1-2.07-6.45-6.22l-11.57-35.26L802.09,892l-3.35,10.72h-6.5q-4.43,0-6.46-6.22l-18.53-56.74c-1.45-4.73-4.68-7.11-9.68-7.11Z" transform="translate(-552.81 -105.62)"/><path class="cls-5" d="M917.89,902.69H897.07c-.7,0-1.46-.56-2.29-1.68s-1.32-1.67-1.46-1.67a21.32,21.32,0,0,1-12.91,3.87q-13.21,0-21.18-6t-8-13.39q0-7.41,7.92-13.12t21.23-5.7a31.08,31.08,0,0,1,12.5,2.62V865q0-16.2-13.54-16.21a33,33,0,0,0-16.55,4.5l-.62-.94a35,35,0,0,1,17.17-4.6q30.2,0,30.19,27.71v18.82q0,7.32,8.33,7.32Zm-25-33.88a29.71,29.71,0,0,0-12.5-2.72q-7.7,0-10.82,5.85-1.68,2.84-1.67,11.92,0,11.1,2.71,14.44,3.23,3.87,9.78,3.87,7.92,0,12.7-4-.21-6.48-.2-12.44Z" transform="translate(-552.81 -105.62)"/><path class="cls-5" d="M949,903.21q-14.06,0-21.66-7.21t-7.49-20.5q0-13.18,7.6-20.5T949,847.79q13.93,0,21.55,7.21t7.6,20.5H936.52q0,18.51,2.09,21.44A12.26,12.26,0,0,0,949,902.17a29.46,29.46,0,0,0,14.68-3.87,30.79,30.79,0,0,0,10.93-10.15l.83.53a31.1,31.1,0,0,1-11.24,10.56A30.66,30.66,0,0,1,949,903.21Zm-12.5-28.76h25q0-15.88-1.56-19.24Q957,848.84,949,848.83t-10.2,5.34Q936.52,859.71,936.52,874.45Z" transform="translate(-552.81 -105.62)"/><path class="cls-5" d="M1002.11,851.24a18.73,18.73,0,0,1,10.41-3.45q12.29,0,19.68,7.42t7.39,20.29q0,13-7.29,20.29t-19.78,7.32a16.84,16.84,0,0,1-10.41-3.45c-2.29-1.82-4.44-2.72-6.45-2.72q-1.78,0-4.53,2.87c-1.84,1.92-2.87,2.88-3.07,2.88h-2.61V831.58c0-4.89-2.78-7.32-8.33-7.32v-1H998q4.15,0,4.16,8.37Zm0,47.06a17.37,17.37,0,0,0,10.41,3.76q6.76,0,9.16-6,1.25-3.35,1.25-20.6,0-17.78-1.25-20.71-2.49-6-9.16-6a17.38,17.38,0,0,0-10.41,3.77v45.7Z" transform="translate(-552.81 -105.62)"/><path class="cls-5" d="M1072.9,903.21q-14.06,0-21.65-7.21t-7.5-20.5q0-13.18,7.6-20.5t21.55-7.21q13.95,0,21.55,7.21t7.6,20.5h-41.64q0,18.51,2.08,21.44a12.28,12.28,0,0,0,10.41,5.23,29.43,29.43,0,0,0,14.68-3.87,30.79,30.79,0,0,0,10.93-10.15l.83.53a31,31,0,0,1-11.24,10.56A30.66,30.66,0,0,1,1072.9,903.21Zm-12.49-28.76h25q0-15.88-1.56-19.24-2.91-6.37-10.93-6.38t-10.2,5.34Q1060.41,859.71,1060.41,874.45Z" transform="translate(-552.81 -105.62)"/><path class="cls-5" d="M1162.43,858.24a8.21,8.21,0,0,1-2.4,5.86,7.86,7.86,0,0,1-5.93,2.51,8.13,8.13,0,0,1-5.83-2.41,7.91,7.91,0,0,1-2.5-6l.42-4.18q0-4.18-4-4.18-7.08,0-13.11,6.9v37.54q0,7.32,8.32,7.32v1.05h-33.31v-1.05q8.32,0,8.33-7.32V856.68q0-7.33-8.33-7.33v-1H1125c.63,0,1.25.55,1.88,1.67a15.27,15.27,0,0,1,1.66,3.35l.63,1.78a31.68,31.68,0,0,1,7.28-5.34q4.17-2,11.66-2a18.5,18.5,0,0,1,10,2.72A8.61,8.61,0,0,1,1162.43,858.24Z" transform="translate(-552.81 -105.62)"/><path d="M718,962.36c.05-.18.1-.35.16-.53a4.14,4.14,0,0,1,.19-.49L725.62,945a.57.57,0,0,1,.21-.27.7.7,0,0,1,.28-.05H727v23.59h-1.17v-20.1c0-.29,0-.6,0-.92l-7.25,16.48c-.12.29-.3.44-.52.44h-.21c-.22,0-.39-.15-.52-.44L710,947.19c0,.33,0,.64,0,.94v20.1h-1.16V944.64h.91a.76.76,0,0,1,.29.05.52.52,0,0,1,.22.27l7.44,16.4A9,9,0,0,1,718,962.36Z" transform="translate(-552.81 -105.62)"/><path d="M746.64,951.38a4.33,4.33,0,0,1,2,.48,4.61,4.61,0,0,1,1.62,1.41,7,7,0,0,1,1.07,2.27,11.64,11.64,0,0,1,.38,3.1,1.1,1.1,0,0,1-.08.5.31.31,0,0,1-.27.14H742v.31a14,14,0,0,0,.34,3.29,7.34,7.34,0,0,0,1,2.37,4.22,4.22,0,0,0,1.51,1.44,4,4,0,0,0,2,.49,4.53,4.53,0,0,0,1.69-.28,5.92,5.92,0,0,0,1.21-.61,6.6,6.6,0,0,0,.77-.62c.2-.18.33-.28.42-.28a.29.29,0,0,1,.26.17l.34.53a3.82,3.82,0,0,1-.83.94,5.58,5.58,0,0,1-1.14.74,7.3,7.3,0,0,1-1.36.49,5.94,5.94,0,0,1-1.45.18,4.93,4.93,0,0,1-2.42-.59,5.39,5.39,0,0,1-1.88-1.72,8.66,8.66,0,0,1-1.21-2.78,14.73,14.73,0,0,1-.43-3.76,12.68,12.68,0,0,1,.4-3.29,8.47,8.47,0,0,1,1.14-2.6,5.55,5.55,0,0,1,1.84-1.71A4.94,4.94,0,0,1,746.64,951.38Zm0,1.18a3.91,3.91,0,0,0-1.8.4,4.06,4.06,0,0,0-1.37,1.15,6.11,6.11,0,0,0-.93,1.8,10.07,10.07,0,0,0-.48,2.35h8.53a9.17,9.17,0,0,0-.28-2.39,5.69,5.69,0,0,0-.81-1.79,3.63,3.63,0,0,0-1.25-1.13A3.33,3.33,0,0,0,746.66,952.56Z" transform="translate(-552.81 -105.62)"/><path d="M774.13,968.23c-.22,0-.34-.15-.37-.44l-.14-2.61a7.81,7.81,0,0,1-2,2.38,4.3,4.3,0,0,1-6.31-1.23A12.08,12.08,0,0,1,764,960a14.62,14.62,0,0,1,.37-3.39,9.08,9.08,0,0,1,1.1-2.74A5.61,5.61,0,0,1,767.2,952a4.38,4.38,0,0,1,2.42-.67,4.06,4.06,0,0,1,2.28.63,5.19,5.19,0,0,1,1.67,1.82V944h1.24v24.25Zm-4.76-1.07a3.61,3.61,0,0,0,2.34-.85,7.81,7.81,0,0,0,1.86-2.37v-8.75a5.28,5.28,0,0,0-1.66-2,3.69,3.69,0,0,0-2-.58,3.77,3.77,0,0,0-2,.53,4.38,4.38,0,0,0-1.45,1.51,8,8,0,0,0-.87,2.34,14.51,14.51,0,0,0-.29,3,10.64,10.64,0,0,0,1.07,5.44A3.39,3.39,0,0,0,769.37,967.16Z" transform="translate(-552.81 -105.62)"/><path d="M791.18,945.93a1.42,1.42,0,0,1-.1.55,1.56,1.56,0,0,1-.25.46,1.21,1.21,0,0,1-.36.32.89.89,0,0,1-.45.12.88.88,0,0,1-.44-.12,1.1,1.1,0,0,1-.36-.32,1.36,1.36,0,0,1-.25-.46,1.63,1.63,0,0,1-.09-.55,1.85,1.85,0,0,1,.09-.58,1.41,1.41,0,0,1,.25-.47,1.1,1.1,0,0,1,.36-.32.88.88,0,0,1,.44-.12.89.89,0,0,1,.45.12,1.21,1.21,0,0,1,.36.32,1.77,1.77,0,0,1,.35,1Zm-.55,5.71v16.59H789.4V951.64Z" transform="translate(-552.81 -105.62)"/><path d="M813.36,968.23c-.26,0-.42-.16-.48-.47l-.18-2.12a14.55,14.55,0,0,1-1.06,1.2,6.39,6.39,0,0,1-1.1.9,4.46,4.46,0,0,1-1.24.56,5.16,5.16,0,0,1-1.46.19,3.4,3.4,0,0,1-1.29-.25,3,3,0,0,1-1.11-.76,3.82,3.82,0,0,1-.77-1.33,5.57,5.57,0,0,1-.3-1.94,4.19,4.19,0,0,1,.47-2,4.37,4.37,0,0,1,1.47-1.57,8.22,8.22,0,0,1,2.56-1.06,17.22,17.22,0,0,1,3.78-.47v-1.73a6.64,6.64,0,0,0-.78-3.54,2.54,2.54,0,0,0-2.3-1.25A3.37,3.37,0,0,0,808,953a5.29,5.29,0,0,0-1.12.73,8.6,8.6,0,0,0-.74.73c-.19.23-.35.34-.48.34a.41.41,0,0,1-.39-.3L805,954a7.87,7.87,0,0,1,2.13-2,4.85,4.85,0,0,1,2.54-.67,3.83,3.83,0,0,1,1.83.42,3.58,3.58,0,0,1,1.29,1.22,6.22,6.22,0,0,1,.78,1.92,11.32,11.32,0,0,1,.26,2.51v10.8Zm-5.21-.89a4.67,4.67,0,0,0,1.39-.2,4.59,4.59,0,0,0,1.17-.59,6,6,0,0,0,1-.89c.31-.34.62-.72.93-1.12v-4.31a18.26,18.26,0,0,0-3.19.35,7.69,7.69,0,0,0-2.2.8,3.45,3.45,0,0,0-1.28,1.19,3,3,0,0,0-.41,1.57,4.11,4.11,0,0,0,.22,1.44,3,3,0,0,0,.56,1,2.13,2.13,0,0,0,.83.57A2.65,2.65,0,0,0,808.15,967.34Z" transform="translate(-552.81 -105.62)"/><path d="M827.64,968.23V951.64h.67q.35,0,.39.42l.12,2.4a9.6,9.6,0,0,1,.81-1.25,6.18,6.18,0,0,1,.92-1,3.86,3.86,0,0,1,1-.63,3.07,3.07,0,0,1,1.16-.22,2.76,2.76,0,0,1,2.27,1,6.19,6.19,0,0,1,1.15,3,6.48,6.48,0,0,1,.65-1.79,5.19,5.19,0,0,1,1-1.24,3.72,3.72,0,0,1,1.19-.73,3.76,3.76,0,0,1,1.32-.24,3.65,3.65,0,0,1,1.73.4,3.77,3.77,0,0,1,1.31,1.21,6.12,6.12,0,0,1,.82,2,10.81,10.81,0,0,1,.29,2.67v10.6h-1.24v-10.6a6.85,6.85,0,0,0-.82-3.71,2.62,2.62,0,0,0-2.34-1.28,2.84,2.84,0,0,0-1.3.32,3.21,3.21,0,0,0-1.09.94,4.93,4.93,0,0,0-.76,1.56,7.78,7.78,0,0,0-.28,2.17v10.6h-1.23v-10.6a7.4,7.4,0,0,0-.76-3.7,2.41,2.41,0,0,0-2.2-1.29,2.85,2.85,0,0,0-1.95.81,7.38,7.38,0,0,0-1.61,2.24v12.54Z" transform="translate(-552.81 -105.62)"/><path d="M866.5,968.23c-.26,0-.42-.16-.48-.47l-.18-2.12a12.94,12.94,0,0,1-1.07,1.2,5.72,5.72,0,0,1-1.1.9,4.28,4.28,0,0,1-1.23.56,5.21,5.21,0,0,1-1.46.19,3.37,3.37,0,0,1-1.29-.25,3,3,0,0,1-1.11-.76,3.82,3.82,0,0,1-.77-1.33,5.57,5.57,0,0,1-.3-1.94,4.19,4.19,0,0,1,.47-2,4.28,4.28,0,0,1,1.47-1.57,8.22,8.22,0,0,1,2.56-1.06,17.2,17.2,0,0,1,3.77-.47v-1.73a6.64,6.64,0,0,0-.77-3.54,2.54,2.54,0,0,0-2.3-1.25,3.41,3.41,0,0,0-1.6.34,5.21,5.21,0,0,0-1.11.73,8.6,8.6,0,0,0-.74.73c-.19.23-.35.34-.48.34a.41.41,0,0,1-.39-.3l-.23-.49a7.9,7.9,0,0,1,2.14-2,4.82,4.82,0,0,1,2.54-.67,3.79,3.79,0,0,1,1.82.42A3.61,3.61,0,0,1,866,953a6,6,0,0,1,.77,1.92,10.76,10.76,0,0,1,.26,2.51v10.8Zm-5.21-.89a4.71,4.71,0,0,0,1.39-.2,4.59,4.59,0,0,0,1.17-.59,6,6,0,0,0,1-.89c.31-.34.62-.72.92-1.12v-4.31a18.24,18.24,0,0,0-3.18.35,7.69,7.69,0,0,0-2.2.8,3.45,3.45,0,0,0-1.28,1.19,3,3,0,0,0-.41,1.57,4.11,4.11,0,0,0,.22,1.44,3,3,0,0,0,.56,1,2.17,2.17,0,0,0,.82.57A2.74,2.74,0,0,0,861.29,967.34Z" transform="translate(-552.81 -105.62)"/><path d="M884.3,968.49a2.45,2.45,0,0,1-2-.93,4.62,4.62,0,0,1-.73-2.88V953.34h-1.86a.3.3,0,0,1-.24-.1.39.39,0,0,1-.09-.28v-.62l2.22-.2.31-5.93a.51.51,0,0,1,.09-.27.28.28,0,0,1,.23-.11h.58v6.33h4.07v1.18h-4.07v11.25a4.52,4.52,0,0,0,.13,1.18,2.54,2.54,0,0,0,.38.81,1.47,1.47,0,0,0,.57.46,1.66,1.66,0,0,0,.7.15,1.73,1.73,0,0,0,.81-.17,3.88,3.88,0,0,0,.58-.38,4,4,0,0,0,.41-.39.43.43,0,0,1,.25-.17c.07,0,.14,0,.2.16l.34.7a3.76,3.76,0,0,1-1.25,1.13A3.26,3.26,0,0,1,884.3,968.49Z" transform="translate(-552.81 -105.62)"/><path d="M902.08,945.93a1.42,1.42,0,0,1-.1.55,1.56,1.56,0,0,1-.25.46,1.21,1.21,0,0,1-.36.32.89.89,0,0,1-.45.12.88.88,0,0,1-.44-.12,1.1,1.1,0,0,1-.36-.32,1.36,1.36,0,0,1-.25-.46,1.63,1.63,0,0,1-.09-.55,1.85,1.85,0,0,1,.09-.58,1.41,1.41,0,0,1,.25-.47,1.1,1.1,0,0,1,.36-.32.88.88,0,0,1,.44-.12.89.89,0,0,1,.45.12,1.21,1.21,0,0,1,.36.32,1.77,1.77,0,0,1,.35,1Zm-.54,5.71v16.59H900.3V951.64Z" transform="translate(-552.81 -105.62)"/><path d="M917.36,944v14.78h.6a.8.8,0,0,0,.34-.07,1,1,0,0,0,.36-.31l5.2-6.32a1.66,1.66,0,0,1,.29-.3.61.61,0,0,1,.39-.12h1.09l-5.72,7c-.08.11-.17.22-.25.31a.85.85,0,0,1-.26.24,1.59,1.59,0,0,1,.36.32l.3.4,6,8.37H925a.63.63,0,0,1-.33-.09,1.17,1.17,0,0,1-.28-.3l-5.45-7.46a1.56,1.56,0,0,0-.4-.41,1.17,1.17,0,0,0-.57-.11h-.59v8.37h-1.24V944Z" transform="translate(-552.81 -105.62)"/><path d="M942.78,951.38a4.37,4.37,0,0,1,2,.48,4.58,4.58,0,0,1,1.61,1.41,7,7,0,0,1,1.07,2.27,11.24,11.24,0,0,1,.38,3.1,1,1,0,0,1-.08.5.31.31,0,0,1-.27.14h-9.35v.31a14,14,0,0,0,.34,3.29,7.82,7.82,0,0,0,1,2.37,4.22,4.22,0,0,0,1.51,1.44,4,4,0,0,0,2,.49,4.59,4.59,0,0,0,1.7-.28,5.58,5.58,0,0,0,1.2-.61,6.83,6.83,0,0,0,.78-.62c.19-.18.33-.28.41-.28a.28.28,0,0,1,.26.17l.34.53a4,4,0,0,1-.82.94,6,6,0,0,1-1.15.74,7.2,7.2,0,0,1-1.35.49,6.08,6.08,0,0,1-1.46.18,5,5,0,0,1-2.42-.59,5.47,5.47,0,0,1-1.88-1.72,8.88,8.88,0,0,1-1.21-2.78,15.19,15.19,0,0,1-.43-3.76,13.12,13.12,0,0,1,.4-3.29,8.48,8.48,0,0,1,1.15-2.6,5.52,5.52,0,0,1,1.83-1.71A4.94,4.94,0,0,1,942.78,951.38Zm0,1.18a3.87,3.87,0,0,0-1.79.4,4.09,4.09,0,0,0-1.38,1.15,6.36,6.36,0,0,0-.93,1.8,10.07,10.07,0,0,0-.48,2.35h8.53a9.17,9.17,0,0,0-.28-2.39,5.47,5.47,0,0,0-.81-1.79,3.54,3.54,0,0,0-1.25-1.13A3.33,3.33,0,0,0,942.8,952.56Z" transform="translate(-552.81 -105.62)"/><path d="M961.08,968.23V951.64h.65a.38.38,0,0,1,.32.12.66.66,0,0,1,.11.4l.11,3.5a8.25,8.25,0,0,1,1.66-3.16,3.35,3.35,0,0,1,2.57-1.14,3.4,3.4,0,0,1,1.08.16,3.56,3.56,0,0,1,.94.46l-.17,1.1c0,.17-.11.26-.26.26a.61.61,0,0,1-.22-.06l-.36-.15A2.63,2.63,0,0,0,967,953a3.14,3.14,0,0,0-.72-.07,3,3,0,0,0-2.41,1.17,9,9,0,0,0-1.53,3.36v10.79Z" transform="translate(-552.81 -105.62)"/><path d="M1001.92,944.38a5.3,5.3,0,0,1,2,.39,4.55,4.55,0,0,1,1.68,1.18,5.67,5.67,0,0,1,1.16,2,8.2,8.2,0,0,1,.43,2.8,8.84,8.84,0,0,1-.32,2.47,11.45,11.45,0,0,1-.86,2.19,16.83,16.83,0,0,1-1.27,2c-.48.67-1,1.34-1.52,2L997.47,967a7.88,7.88,0,0,1,.87-.2,6.8,6.8,0,0,1,.9-.06h8a.38.38,0,0,1,.33.16.64.64,0,0,1,.13.4v.94h-11.9v-.57a1,1,0,0,1,.08-.37A1,1,0,0,1,996,967l6.29-8.15c.52-.68,1-1.33,1.45-2a15.36,15.36,0,0,0,1.15-1.91,10.76,10.76,0,0,0,.77-2,7.94,7.94,0,0,0,.28-2.16,6.68,6.68,0,0,0-.34-2.26,4.71,4.71,0,0,0-.9-1.58,3.65,3.65,0,0,0-1.31-.91,4,4,0,0,0-1.54-.3,3.75,3.75,0,0,0-1.61.34,4.15,4.15,0,0,0-1.3.95,5.11,5.11,0,0,0-.94,1.45,6.65,6.65,0,0,0-.51,1.84c-.09.39-.26.58-.52.58h-.13l-.63-.14a9.38,9.38,0,0,1,.65-2.7,6.63,6.63,0,0,1,1.23-2,5.07,5.07,0,0,1,1.71-1.24A5.33,5.33,0,0,1,1001.92,944.38Z" transform="translate(-552.81 -105.62)"/><path d="M1020.43,966.94a2,2,0,0,1,.09-.6,1.53,1.53,0,0,1,.26-.49,1.28,1.28,0,0,1,.37-.33,1,1,0,0,1,.48-.13,1,1,0,0,1,.47.13,1.19,1.19,0,0,1,.38.33,1.53,1.53,0,0,1,.26.49,1.72,1.72,0,0,1,.1.6,1.66,1.66,0,0,1-.1.61,1.53,1.53,0,0,1-.26.49,1.16,1.16,0,0,1-.38.32,1,1,0,0,1-.47.12,1,1,0,0,1-.85-.44A1.74,1.74,0,0,1,1020.43,966.94Z" transform="translate(-552.81 -105.62)"/><path d="M1053,966.78h8.74v1.45h-10.06V944.64H1053Z" transform="translate(-552.81 -105.62)"/><path d="M1078.74,951.38a4.37,4.37,0,0,1,2,.48,4.58,4.58,0,0,1,1.61,1.41,7,7,0,0,1,1.07,2.27,11.24,11.24,0,0,1,.38,3.1,1,1,0,0,1-.08.5.31.31,0,0,1-.27.14h-9.35v.31a14,14,0,0,0,.34,3.29,7.58,7.58,0,0,0,1,2.37,4.22,4.22,0,0,0,1.51,1.44,4,4,0,0,0,2,.49,4.62,4.62,0,0,0,1.7-.28,5.82,5.82,0,0,0,1.2-.61,6.83,6.83,0,0,0,.78-.62c.19-.18.33-.28.41-.28a.28.28,0,0,1,.26.17l.34.53a3.82,3.82,0,0,1-.83.94,5.58,5.58,0,0,1-1.14.74,7.05,7.05,0,0,1-1.36.49,5.94,5.94,0,0,1-1.45.18,5,5,0,0,1-2.42-.59,5.39,5.39,0,0,1-1.88-1.72,8.88,8.88,0,0,1-1.21-2.78,15.19,15.19,0,0,1-.43-3.76,13.12,13.12,0,0,1,.4-3.29,8.48,8.48,0,0,1,1.15-2.6,5.52,5.52,0,0,1,1.83-1.71A4.94,4.94,0,0,1,1078.74,951.38Zm0,1.18a3.84,3.84,0,0,0-1.79.4,4.09,4.09,0,0,0-1.38,1.15,6.36,6.36,0,0,0-.93,1.8,10.07,10.07,0,0,0-.48,2.35h8.53a9.17,9.17,0,0,0-.28-2.39,5.47,5.47,0,0,0-.81-1.79,3.63,3.63,0,0,0-1.25-1.13A3.33,3.33,0,0,0,1078.76,952.56Z" transform="translate(-552.81 -105.62)"/><path d="M1097,968.23V944h1.24v10.5a8.06,8.06,0,0,1,2-2.26,4.28,4.28,0,0,1,2.58-.84,4,4,0,0,1,1.89.43,3.64,3.64,0,0,1,1.34,1.25,6,6,0,0,1,.81,2,11.32,11.32,0,0,1,.28,2.6v10.6H1106v-10.6a6.79,6.79,0,0,0-.84-3.66,2.78,2.78,0,0,0-2.55-1.33,3.82,3.82,0,0,0-2.37.84,8.06,8.06,0,0,0-2,2.31v12.44Z" transform="translate(-552.81 -105.62)"/><path d="M1121,968.23V951.64h.66a.37.37,0,0,1,.31.12.65.65,0,0,1,.12.4l.1,3.5a8.26,8.26,0,0,1,1.67-3.16,3.33,3.33,0,0,1,2.56-1.14,3.48,3.48,0,0,1,2,.62l-.17,1.1c0,.17-.11.26-.26.26a.66.66,0,0,1-.22-.06,4,4,0,0,0-.89-.3,3.18,3.18,0,0,0-3.13,1.1,9,9,0,0,0-1.53,3.36v10.79Z" transform="translate(-552.81 -105.62)"/><path d="M1142.82,951.64v18.7a6.15,6.15,0,0,1-.2,1.6,3.85,3.85,0,0,1-.58,1.28,2.71,2.71,0,0,1-1,.85,2.93,2.93,0,0,1-1.36.31,2.38,2.38,0,0,1-.68-.09,2,2,0,0,1-.58-.26l.06-.8c0-.14.07-.2.18-.2a1.11,1.11,0,0,1,.3.06,1.39,1.39,0,0,0,.51.07,1.75,1.75,0,0,0,1.56-.73,3.65,3.65,0,0,0,.51-2.09v-18.7Zm.55-5.71a1.63,1.63,0,0,1-.1.55,1.82,1.82,0,0,1-.25.46,1.24,1.24,0,0,1-.37.32.88.88,0,0,1-.44.12.89.89,0,0,1-.45-.12,1.21,1.21,0,0,1-.36-.32,1.56,1.56,0,0,1-.25-.46,1.63,1.63,0,0,1-.09-.55,1.85,1.85,0,0,1,.09-.58,1.62,1.62,0,0,1,.25-.47,1.21,1.21,0,0,1,.36-.32.89.89,0,0,1,.45-.12.88.88,0,0,1,.44.12,1.24,1.24,0,0,1,.37.32,1.9,1.9,0,0,1,.25.47A1.86,1.86,0,0,1,1143.37,945.93Z" transform="translate(-552.81 -105.62)"/><path d="M1165.49,968.23c-.26,0-.42-.16-.48-.47l-.18-2.12a14.55,14.55,0,0,1-1.06,1.2,6,6,0,0,1-1.1.9,4.34,4.34,0,0,1-1.24.56,5.16,5.16,0,0,1-1.46.19,3.4,3.4,0,0,1-1.29-.25,3,3,0,0,1-1.1-.76,3.84,3.84,0,0,1-.78-1.33,5.83,5.83,0,0,1-.29-1.94,4.07,4.07,0,0,1,.47-2,4.33,4.33,0,0,1,1.46-1.57,8.29,8.29,0,0,1,2.57-1.06,17,17,0,0,1,3.77-.47v-1.73a6.64,6.64,0,0,0-.78-3.54,2.53,2.53,0,0,0-2.3-1.25,3.39,3.39,0,0,0-1.59.34,5,5,0,0,0-1.11.73,7.58,7.58,0,0,0-.75.73c-.19.23-.35.34-.48.34a.43.43,0,0,1-.39-.3l-.22-.49a7.9,7.9,0,0,1,2.14-2,4.8,4.8,0,0,1,2.54-.67,3.79,3.79,0,0,1,1.82.42A3.58,3.58,0,0,1,1165,953a5.77,5.77,0,0,1,.78,1.92,11.32,11.32,0,0,1,.26,2.51v10.8Zm-5.21-.89a4.67,4.67,0,0,0,1.39-.2,4.59,4.59,0,0,0,1.17-.59,6,6,0,0,0,1-.89c.32-.34.62-.72.93-1.12v-4.31a18.37,18.37,0,0,0-3.19.35,7.69,7.69,0,0,0-2.2.8,3.41,3.41,0,0,0-1.27,1.19,2.94,2.94,0,0,0-.41,1.57,4.38,4.38,0,0,0,.21,1.44,2.81,2.81,0,0,0,.57,1,2.1,2.1,0,0,0,.82.57A2.69,2.69,0,0,0,1160.28,967.34Z" transform="translate(-552.81 -105.62)"/><path d="M1179.77,968.23V944H1181v10.5a8.06,8.06,0,0,1,2-2.26,4.28,4.28,0,0,1,2.58-.84,3.92,3.92,0,0,1,1.88.43,3.59,3.59,0,0,1,1.35,1.25,6,6,0,0,1,.81,2,11.35,11.35,0,0,1,.27,2.6v10.6h-1.23v-10.6a6.79,6.79,0,0,0-.84-3.66,2.78,2.78,0,0,0-2.55-1.33,3.82,3.82,0,0,0-2.37.84,8.06,8.06,0,0,0-2,2.31v12.44Z" transform="translate(-552.81 -105.62)"/><path d="M1203.73,968.23V951.64h.65a.38.38,0,0,1,.32.12.6.6,0,0,1,.11.4l.11,3.5a8.26,8.26,0,0,1,1.67-3.16,3.33,3.33,0,0,1,2.56-1.14,3.4,3.4,0,0,1,1.08.16,3.56,3.56,0,0,1,.94.46l-.17,1.1c0,.17-.11.26-.26.26a.61.61,0,0,1-.22-.06l-.36-.15a2.63,2.63,0,0,0-.53-.15,3,3,0,0,0-.71-.07,3,3,0,0,0-2.42,1.17,9,9,0,0,0-1.53,3.36v10.79Z" transform="translate(-552.81 -105.62)"/><polygon class="cls-6" points="385.89 814.9 720.88 812.5 385.9 810.31 385.9 810.31 385.84 810.31 385.77 810.31 385.77 810.31 50.8 812.5 385.89 814.9 385.89 814.9 385.89 814.9 385.89 814.9 385.89 814.9"/></g></svg>